# Blender v2.78 (sub 0) OBJ File: ''
# www.blender.org
mtllib md_3DSword-04.mtl
o md_3DSword-04.001
v -0.117000 -0.600000 0.200000
v 0.065000 -0.600000 0.240000
v -0.065000 -0.600000 0.240000
v 0.117000 -0.600000 0.200000
v -0.117000 -0.600000 -0.200000
v 0.117000 -0.600000 -0.200000
v -0.065000 -0.600000 -0.240000
v 0.065000 -0.600000 -0.240000
v -0.117000 -0.500000 0.200000
v -0.117000 -0.500000 -0.200000
v 0.117000 -0.500000 -0.200000
v 0.117000 -0.500000 0.200000
v -0.065000 -0.500000 0.240000
v 0.065000 -0.500000 0.240000
v 0.065000 -0.500000 -0.240000
v -0.065000 -0.500000 -0.240000
v 0.095200 -0.500000 -0.000000
v 0.047600 -0.072248 0.095000
v -0.000000 -0.500000 0.190000
v 0.095200 0.900000 -0.000000
v 0.000000 -0.167330 0.190000
v 0.000000 0.022834 0.190000
v 0.000000 0.900000 0.190000
v -0.095200 0.900000 -0.000000
v 0.000000 0.900000 -0.190000
v -0.095200 -0.500000 -0.000000
v -0.047600 -0.072248 0.095000
v -0.000000 -0.500000 -0.190000
v 0.047600 0.631426 -0.095000
v 0.000000 0.536344 -0.190000
v 0.000000 0.726508 -0.190000
v -0.047600 0.631426 -0.095000
v 0.000000 1.200000 -0.000000
v 0.000000 0.900000 -0.190000
v 0.000000 0.900000 0.190000
v 0.055000 -1.120000 0.095263
v 0.034884 -1.120000 0.060420
v -0.055000 -1.120000 0.095263
v 0.110000 -1.120000 -0.000000
v 0.069768 -1.120000 -0.000000
v 0.055000 -1.120000 -0.095263
v 0.034884 -1.120000 -0.060420
v -0.034884 -1.120000 -0.060420
v -0.034884 -1.120000 0.060420
v -0.110000 -1.120000 -0.000000
v -0.069767 -1.120000 -0.000000
v -0.055000 -1.120000 -0.095263
v 0.055000 -1.200000 0.095263
v 0.110000 -1.200000 -0.000000
v 0.055000 -0.560000 -0.095263
v 0.110000 -0.640000 -0.000000
v 0.055000 -0.640000 -0.095263
v 0.110000 -0.560000 -0.000000
v -0.055000 -0.560000 0.095263
v 0.055000 -0.560000 0.095263
v -0.110000 -0.560000 -0.000000
v -0.055000 -0.560000 -0.095263
v -0.055000 -1.200000 -0.095263
v -0.110000 -1.200000 -0.000000
v -0.055000 -0.640000 0.095263
v -0.034884 -0.640000 0.060420
v 0.055000 -0.640000 0.095263
v -0.110000 -0.640000 -0.000000
v -0.069767 -0.640000 -0.000000
v -0.055000 -0.640000 -0.095263
v -0.034884 -0.640000 -0.060420
v 0.034884 -0.640000 -0.060420
v 0.034884 -0.640000 0.060420
v 0.069768 -0.640000 -0.000000
v -0.055000 -1.200000 0.095263
v 0.055000 -1.200000 -0.095263
vt -0.2000 -0.1170
vt -0.2400 0.0650
vt -0.2400 -0.0650
vt -0.2000 0.1170
vt 0.2000 -0.1170
vt 0.2000 0.1170
vt 0.2400 -0.0650
vt 0.2400 0.0650
vt 0.2000 0.4000
vt -0.2000 0.3000
vt 0.2000 0.3000
vt -0.2000 0.4000
vt 0.2000 0.4000
vt -0.2000 0.3000
vt 0.2000 0.3000
vt -0.2000 0.4000
vt -0.0650 0.4000
vt 0.0650 0.3000
vt 0.0650 0.4000
vt -0.0650 0.3000
vt 0.1170 0.3000
vt 0.1170 0.4000
vt -0.2000 -0.1170
vt -0.2400 0.0650
vt -0.2400 -0.0650
vt -0.2000 0.1170
vt 0.2000 -0.1170
vt 0.2000 0.1170
vt 0.2400 -0.0650
vt 0.2400 0.0650
vt -0.1170 0.3000
vt -0.0650 0.4000
vt -0.1170 0.4000
vt -0.0650 0.3000
vt 0.0650 0.4000
vt 0.0650 0.3000
vt 0.1170 0.4000
vt 0.1170 0.3000
vt -0.1170 0.4000
vt -0.1170 0.3000
vt 0.0000 0.4000
vt -0.0950 0.8278
vt -0.1900 0.4000
vt 0.0000 1.8000
vt -0.1900 0.7327
vt -0.1900 0.9228
vt -0.1900 1.8000
vt 0.0000 -0.0952
vt 0.0000 0.0952
vt -0.1900 -0.0000
vt 0.1900 -0.0000
vt 0.1900 0.7327
vt 0.0000 0.4000
vt 0.1900 0.4000
vt 0.0950 0.8278
vt 0.0000 1.8000
vt 0.1900 0.9228
vt 0.1900 1.8000
vt 0.0000 -0.0952
vt 0.0000 0.0952
vt -0.1900 -0.0000
vt 0.1900 -0.0000
vt 0.1900 0.4000
vt 0.0950 1.5314
vt 0.1900 1.4363
vt 0.1900 1.6265
vt 0.1900 1.8000
vt -0.1900 1.4363
vt -0.1900 0.4000
vt -0.0950 1.5314
vt -0.1900 1.6265
vt -0.1900 1.8000
vt -0.0000 1.6265
vt -0.0476 1.5314
vt 0.0476 1.5314
vt -0.0000 1.4363
vt -0.0476 0.8278
vt 0.0000 0.7327
vt 0.0476 0.8278
vt 0.0000 0.9228
vt 0.0000 2.1000
vt -0.1900 1.8000
vt -0.1900 1.8000
vt 0.1900 1.8000
vt 0.1900 1.8000
vt 0.0000 -0.0952
vt 0.0000 0.0952
vt -0.1900 0.0000
vt 0.1900 0.0000
vt -0.0953 -0.0550
vt -0.0604 -0.0349
vt -0.0953 0.0550
vt 0.0000 -0.1100
vt 0.0000 -0.0698
vt 0.0953 -0.0550
vt 0.0604 -0.0349
vt 0.0604 0.0349
vt -0.0604 0.0349
vt 0.0000 0.1100
vt 0.0000 0.0698
vt 0.0953 0.0550
vt 0.0000 -0.2200
vt -0.0953 -0.3000
vt 0.0000 -0.3000
vt -0.0953 -0.2200
vt 0.0953 0.3400
vt 0.0000 0.2600
vt 0.0953 0.2600
vt 0.0000 0.3400
vt 0.0000 -0.1100
vt -0.0953 0.0550
vt -0.0953 -0.0550
vt 0.0000 0.1100
vt 0.0953 -0.0550
vt 0.0953 0.0550
vt 0.0000 -0.2200
vt -0.0953 -0.3000
vt 0.0000 -0.3000
vt -0.0953 -0.2200
vt -0.0953 -0.0550
vt -0.0604 -0.0349
vt -0.0953 0.0550
vt 0.0000 -0.1100
vt 0.0000 -0.0698
vt 0.0953 -0.0550
vt 0.0604 -0.0349
vt 0.0604 0.0349
vt -0.0604 0.0349
vt 0.0000 0.1100
vt 0.0000 0.0698
vt 0.0953 0.0550
vt 0.0000 -0.1100
vt -0.0953 0.0550
vt -0.0953 -0.0550
vt 0.0000 0.1100
vt 0.0953 -0.0550
vt 0.0953 0.0550
vt 0.0000 0.3400
vt -0.0953 0.2600
vt 0.0000 0.2600
vt -0.0953 0.3400
vt 0.0550 0.2600
vt -0.0550 0.3400
vt -0.0550 0.2600
vt 0.0550 0.3400
vt -0.0550 0.3400
vt 0.0550 0.2600
vt 0.0550 0.3400
vt -0.0550 0.2600
vt 0.0953 0.3400
vt 0.0953 0.2600
vt 0.0953 -0.2200
vt 0.0953 -0.3000
vt -0.0953 0.2600
vt -0.0953 0.3400
vt 0.0953 -0.2200
vt 0.0953 -0.3000
vt -0.0550 -0.2200
vt 0.0550 -0.3000
vt 0.0550 -0.2200
vt -0.0550 -0.3000
vt 0.0550 -0.3000
vt -0.0550 -0.2200
vt -0.0550 -0.3000
vt 0.0550 -0.2200
vt 0.0604 0.2600
vt 0.0000 -0.2200
vt 0.0604 -0.2200
vt 0.0000 0.2600
vt 0.0604 0.2600
vt 0.0000 -0.2200
vt 0.0604 -0.2200
vt 0.0000 0.2600
vt -0.0604 -0.2200
vt -0.0604 0.2600
vt -0.0349 0.2600
vt 0.0349 -0.2200
vt 0.0349 0.2600
vt -0.0349 -0.2200
vt -0.0349 -0.2200
vt 0.0349 0.2600
vt -0.0349 0.2600
vt 0.0349 -0.2200
vt -0.0604 -0.2200
vt -0.0604 0.2600
vn -0.0000 -1.0000 0.0000
vn -1.0000 0.0000 0.0000
vn 1.0000 0.0000 -0.0000
vn -0.0000 -0.0000 1.0000
vn 0.6097 -0.0000 0.7926
vn 0.0000 1.0000 -0.0000
vn 0.6097 0.0000 -0.7926
vn -0.0000 0.0000 -1.0000
vn -0.6097 0.0000 -0.7926
vn -0.6097 0.0000 0.7926
vn 0.8941 -0.0000 0.4480
vn -0.8941 0.0000 0.4480
vn 0.8941 -0.0000 -0.4480
vn -0.8941 0.0000 -0.4480
vn -0.0000 -0.8644 -0.5027
vn -0.0000 0.8644 -0.5027
vn -0.0000 0.8644 0.5027
vn 0.0000 -0.8644 0.5027
vn -0.8601 0.2729 -0.4310
vn 0.8601 0.2729 0.4310
vn -0.8601 0.2729 0.4310
vn 0.8601 0.2729 -0.4310
vn 0.8660 -0.0000 0.5000
vn 0.8660 -0.0000 -0.5000
vn -0.8660 0.0000 -0.5000
vn -0.8660 0.0000 0.5000
usemtl blade_(Instance)_(Instance).001
s 1
f 1/1/1 2/2/1 3/3/1
f 2/2/1 1/1/1 4/4/1
f 4/4/1 1/1/1 5/5/1
f 4/4/1 5/5/1 6/6/1
f 6/6/1 5/5/1 7/7/1
f 6/6/1 7/7/1 8/8/1
f 9/9/2 5/10/2 1/11/2
f 5/10/2 9/9/2 10/12/2
f 11/13/3 4/14/3 6/15/3
f 4/14/3 11/13/3 12/16/3
f 13/17/4 2/18/4 14/19/4
f 2/18/4 13/17/4 3/20/4
f 14/19/5 4/21/5 12/22/5
f 4/21/5 14/19/5 2/18/5
f 12/23/6 13/24/6 14/25/6
f 13/24/6 12/23/6 9/26/6
f 9/26/6 12/23/6 11/27/6
f 9/26/6 11/27/6 10/28/6
f 10/28/6 11/27/6 15/29/6
f 10/28/6 15/29/6 16/30/6
f 6/31/7 15/32/7 11/33/7
f 15/32/7 6/31/7 8/34/7
f 8/34/8 16/35/8 15/32/8
f 16/35/8 8/34/8 7/36/8
f 7/36/9 10/37/9 16/35/9
f 10/37/9 7/36/9 5/38/9
f 9/39/10 3/20/10 13/17/10
f 3/20/10 9/39/10 1/40/10
f 17/41/11 18/42/11 19/43/11
f 18/42/11 17/41/11 20/44/11
f 19/43/11 18/42/11 21/45/11
f 18/42/11 20/44/11 22/46/11
f 22/46/11 20/44/11 23/47/11
f 20/48/6 24/49/6 23/50/6
f 24/49/6 20/48/6 25/51/6
f 21/52/12 26/53/12 19/54/12
f 26/53/12 21/52/12 27/55/12
f 26/53/12 27/55/12 24/56/12
f 24/56/12 27/55/12 22/57/12
f 24/56/12 22/57/12 23/58/12
f 26/59/1 17/60/1 19/61/1
f 17/60/1 26/59/1 28/62/1
f 28/63/13 20/44/13 17/41/13
f 20/44/13 28/63/13 29/64/13
f 29/64/13 28/63/13 30/65/13
f 20/44/13 29/64/13 31/66/13
f 20/44/13 31/66/13 25/67/13
f 26/53/14 30/68/14 28/69/14
f 30/68/14 26/53/14 32/70/14
f 32/70/14 26/53/14 24/56/14
f 32/70/14 24/56/14 31/71/14
f 31/71/14 24/56/14 25/72/14
f 31/73/15 29/74/15 32/75/15
f 30/76/16 32/75/16 29/74/16
f 27/77/17 21/78/17 18/79/17
f 18/79/18 22/80/18 27/77/18
f 33/81/19 34/82/19 24/56/19
f 33/81/20 35/83/20 20/44/20
f 33/81/21 24/56/21 35/84/21
f 33/81/22 20/44/22 34/85/22
f 24/86/1 20/87/1 35/88/1
f 20/87/1 24/86/1 34/89/1
f 36/90/6 37/91/6 38/92/6
f 37/91/6 36/90/6 39/93/6
f 37/91/6 39/93/6 40/94/6
f 40/94/6 39/93/6 41/95/6
f 40/94/6 41/95/6 42/96/6
f 42/96/6 41/95/6 43/97/6
f 44/98/6 38/92/6 37/91/6
f 38/92/6 44/98/6 45/99/6
f 45/99/6 44/98/6 46/100/6
f 45/99/6 46/100/6 43/97/6
f 45/99/6 43/97/6 47/101/6
f 47/101/6 43/97/6 41/95/6
f 39/102/23 48/103/23 49/104/23
f 48/103/23 39/102/23 36/105/23
f 50/106/24 51/107/24 52/108/24
f 51/107/24 50/106/24 53/109/24
f 53/110/6 54/111/6 55/112/6
f 54/111/6 53/110/6 56/113/6
f 56/113/6 53/110/6 50/114/6
f 56/113/6 50/114/6 57/115/6
f 45/116/25 58/117/25 59/118/25
f 58/117/25 45/116/25 47/119/25
f 60/120/1 61/121/1 62/122/1
f 61/121/1 60/120/1 63/123/1
f 61/121/1 63/123/1 64/124/1
f 64/124/1 63/123/1 65/125/1
f 64/124/1 65/125/1 66/126/1
f 66/126/1 65/125/1 67/127/1
f 68/128/1 62/122/1 61/121/1
f 62/122/1 68/128/1 51/129/1
f 51/129/1 68/128/1 69/130/1
f 51/129/1 69/130/1 67/127/1
f 51/129/1 67/127/1 52/131/1
f 52/131/1 67/127/1 65/125/1
f 59/132/1 48/133/1 70/134/1
f 48/133/1 59/132/1 49/135/1
f 49/135/1 59/132/1 58/136/1
f 49/135/1 58/136/1 71/137/1
f 56/138/25 65/139/25 63/140/25
f 65/139/25 56/138/25 57/141/25
f 65/142/8 50/143/8 52/144/8
f 50/143/8 65/142/8 57/145/8
f 54/146/4 62/147/4 55/148/4
f 62/147/4 54/146/4 60/149/4
f 54/150/26 63/140/26 60/151/26
f 63/140/26 54/150/26 56/138/26
f 38/152/26 59/118/26 70/153/26
f 59/118/26 38/152/26 45/116/26
f 53/109/23 62/154/23 51/107/23
f 62/154/23 53/109/23 55/155/23
f 41/156/24 49/104/24 71/157/24
f 49/104/24 41/156/24 39/102/24
f 38/158/4 48/159/4 36/160/4
f 48/159/4 38/158/4 70/161/4
f 58/162/8 41/163/8 71/164/8
f 41/163/8 58/162/8 47/165/8
f 67/166/24 40/167/24 42/168/24
f 40/167/24 67/166/24 69/169/24
f 61/170/26 46/171/26 44/172/26
f 46/171/26 61/170/26 64/173/26
f 64/173/25 43/174/25 46/171/25
f 43/174/25 64/173/25 66/175/25
f 61/176/4 37/177/4 68/178/4
f 37/177/4 61/176/4 44/179/4
f 42/180/8 66/181/8 67/182/8
f 66/181/8 42/180/8 43/183/8
f 69/169/23 37/184/23 40/167/23
f 37/184/23 69/169/23 68/185/23
